<?xml version="1.0" standalone="no"?>
<!DOCTYPE svg PUBLIC "-//W3C//DTD SVG 20010904//EN"
 "http://www.w3.org/TR/2001/REC-SVG-20010904/DTD/svg10.dtd">
<svg version="1.0" xmlns="http://www.w3.org/2000/svg"
 width="700.000000pt" height="700.000000pt" viewBox="0 0 700.000000 700.000000"
 preserveAspectRatio="xMidYMid meet">
<metadata>
Created by potrace 1.14, written by Peter Selinger 2001-2017
</metadata>
<g transform="translate(0.000000,700.000000) scale(0.100000,-0.100000)"
fill="#000000" stroke="none">
<path d="M3133 6984 c-1271 -138 -2361 -948 -2861 -2124 -182 -429 -272 -880
-272 -1367 0 -395 52 -723 171 -1090 388 -1195 1417 -2107 2648 -2347 268 -53
346 -58 746 -53 404 5 480 13 783 87 560 136 1127 443 1544 837 580 549 934
1204 1074 1993 26 146 28 176 32 520 3 296 1 389 -12 490 -211 1628 -1493
2884 -3120 3055 -178 18 -560 18 -733 -1z m382 -616 l25 -30 0 -258 0 -258
-26 -31 c-34 -41 -93 -57 -133 -37 -16 9 -39 28 -50 42 -20 25 -21 38 -21 281
0 279 4 301 59 322 64 25 107 16 146 -31z m-1133 -329 c32 -14 300 -358 317
-407 13 -35 12 -42 -5 -78 -25 -52 -76 -80 -128 -70 -45 9 -63 25 -171 166
-190 246 -185 238 -185 287 0 38 5 50 34 79 27 27 42 34 75 34 22 0 50 -5 63
-11z m2199 -6 c17 -10 35 -34 45 -59 14 -37 14 -45 1 -77 -23 -55 -302 -403
-329 -411 -94 -25 -186 55 -161 139 9 30 231 323 296 393 26 27 38 32 75 32
24 0 57 -8 73 -17z m-891 -506 c179 -54 296 -123 425 -252 138 -137 222 -285
267 -473 20 -82 21 -119 25 -704 l4 -618 57 0 c64 0 94 -15 117 -60 36 -69 1
-149 -73 -170 -22 -6 -167 -10 -349 -10 l-313 0 0 -260 0 -260 223 0 222 0 24
38 c49 75 229 311 334 437 213 256 433 474 652 649 215 172 245 184 313 122
l37 -34 3 -674 c2 -470 0 -684 -8 -711 -7 -25 -22 -45 -43 -57 -31 -19 -55
-20 -609 -20 l-577 0 -59 -87 c-223 -333 -487 -825 -666 -1243 -86 -201 -132
-245 -212 -207 -43 21 -56 42 -94 152 -40 113 -109 261 -190 401 -130 228
-405 622 -627 902 l-73 92 -540 0 c-319 0 -549 4 -564 10 -57 21 -56 8 -56
742 0 621 1 676 18 708 32 65 101 75 163 23 72 -61 548 -601 872 -991 l211
-252 188 0 188 0 0 260 0 260 -312 1 c-215 0 -324 4 -348 12 -67 23 -99 107
-64 167 26 43 64 60 138 60 l66 0 0 589 c0 627 3 683 51 824 82 245 262 453
489 567 159 79 260 101 455 96 126 -3 164 -8 235 -29z m1235 -3222 c94 -20
216 -80 293 -144 245 -204 314 -558 165 -844 -56 -108 -182 -231 -293 -285
-126 -62 -191 -75 -335 -69 -138 5 -214 26 -314 84 -304 179 -427 566 -278
878 139 290 451 446 762 380z m-2504 -32 c201 -70 355 -223 426 -425 35 -96
43 -268 19 -373 -44 -189 -186 -369 -356 -453 -108 -53 -190 -72 -311 -72
-118 0 -222 25 -322 77 -102 53 -230 182 -280 283 -97 196 -102 419 -13 605
72 151 170 251 321 326 108 54 185 69 320 65 91 -2 125 -8 196 -33z"/>
<path d="M3305 5322 c-54 -9 -155 -49 -219 -85 -188 -107 -329 -284 -376 -474
-19 -74 -20 -112 -17 -678 l2 -600 140 0 140 0 5 317 5 316 24 26 c38 40 93
53 136 33 69 -33 69 -36 75 -382 l5 -310 193 -3 192 -2 0 360 0 360 -139 0
c-135 0 -140 1 -170 26 -32 27 -56 91 -46 124 3 10 22 33 41 49 l35 31 222 0
c238 0 250 -2 279 -53 10 -16 14 -134 18 -457 l5 -435 155 0 155 0 0 615 c0
567 -1 620 -18 675 -22 71 -84 190 -138 262 -90 121 -271 243 -412 277 -62 16
-226 20 -292 8z"/>
<path d="M5328 3563 c-121 -101 -308 -288 -432 -433 -99 -116 -316 -399 -316
-412 0 -5 191 -8 425 -8 l425 0 0 465 c0 256 -2 465 -5 465 -2 0 -46 -35 -97
-77z"/>
<path d="M1560 3140 l0 -430 382 0 381 0 -20 23 c-10 12 -96 112 -188 222
-315 373 -530 615 -546 615 -5 0 -9 -181 -9 -430z"/>
<path d="M3220 2980 l0 -260 195 0 195 0 0 260 0 260 -195 0 -195 0 0 -260z"/>
<path d="M2800 2474 c0 -3 51 -73 113 -157 259 -348 448 -640 563 -870 l46
-90 46 99 c114 245 307 607 459 857 46 75 86 144 89 152 5 13 -75 15 -655 15
-364 0 -661 -2 -661 -6z"/>
<path d="M4668 2075 c-158 -43 -283 -168 -323 -320 -52 -203 40 -416 224 -513
76 -41 132 -54 221 -53 204 1 380 142 430 344 7 27 11 85 8 136 -4 78 -9 99
-41 163 -39 81 -109 155 -187 201 -91 53 -229 71 -332 42z m182 -310 c46 -24
74 -71 74 -127 0 -105 -113 -178 -204 -131 -99 51 -109 193 -18 252 39 25 106
28 148 6z"/>
<path d="M2090 2076 c-161 -46 -285 -168 -325 -321 -42 -164 5 -325 127 -442
93 -88 190 -125 318 -124 204 1 380 142 430 344 7 27 11 85 8 136 -4 78 -9 99
-41 163 -39 81 -109 155 -187 201 -91 53 -230 71 -330 43z m180 -311 c96 -50
101 -179 9 -248 -89 -66 -219 7 -219 122 0 107 114 176 210 126z"/>
</g>
</svg>
