<?xml version="1.0" encoding="utf-8"?>
<!-- Generator: Adobe Illustrator 27.8.0, SVG Export Plug-In . SVG Version: 6.00 Build 0)  -->
<svg version="1.1" id="Layer_1" xmlns="http://www.w3.org/2000/svg" xmlns:xlink="http://www.w3.org/1999/xlink" x="0px" y="0px"
	 viewBox="0 0 79.5 79.5" style="enable-background:new 0 0 79.5 79.5;" xml:space="preserve">
<style type="text/css">
	.st0{fill:#182F3D;}
	.st1{fill:#FFFFFF;}
</style>
<circle class="st0" cx="39.8" cy="39.8" r="39.8"/>
<g>
	<g>
		<path class="st1" d="M25,68.8c4.3,0,7.8-3.5,7.8-7.8s-3.5-7.8-7.8-7.8s-7.8,3.5-7.8,7.8S20.6,68.8,25,68.8z M25,55.8
			c2.8,0,5.1,2.3,5.1,5.1s-2.3,5.1-5.1,5.1s-5.1-2.3-5.1-5.1S22.2,55.8,25,55.8z"/>
		<circle class="st1" cx="25" cy="60.9" r="1.7"/>
		<path class="st1" d="M62.1,60.9c0-4.3-3.5-7.8-7.8-7.8s-7.8,3.5-7.8,7.8s3.5,7.8,7.8,7.8S62.1,65.2,62.1,60.9z M49.2,60.9
			c0-2.8,2.3-5.1,5.1-5.1s5.1,2.3,5.1,5.1c0,2.8-2.3,5.1-5.1,5.1S49.2,63.7,49.2,60.9z"/>
		<circle class="st1" cx="54.3" cy="60.9" r="1.7"/>
		<path class="st1" d="M16.4,51.4h12c4.8,6,9.3,12.6,10.3,16.6c0.2,0.5,0.6,1,1.3,1.1H40c0.5,0,1.1-0.4,1.3-0.9
			c0.1-0.1,3.2-8.3,8.9-16.7H63c0.7,0,1.3-0.6,1.3-1.3V35.4c0-0.5-0.3-1-0.7-1.2c-0.5-0.3-1-0.2-1.4,0.1c-5.4,3.8-9.9,9.1-13.5,14.3
			H29.6c-5.9-7.3-11.8-13.7-12.2-14.1c-0.4-0.4-1-0.5-1.4-0.4c-0.5,0.2-0.8,0.7-0.8,1.3V50C15.1,50.8,15.6,51.4,16.4,51.4z
			 M61.6,38.2v10.5H52C54.7,44.8,57.9,41.1,61.6,38.2z M46.8,51.4c-3.1,4.9-5.5,9.7-6.8,12.6c-1.7-3.7-4.9-8.3-8.2-12.6H46.8z
			 M17.8,38.9c2.1,2.2,5.2,5.9,8.5,9.8h-8.5C17.8,48.7,17.8,38.9,17.8,38.9z"/>
	</g>
	<g>
		<g>
			<g>
				<path class="st1" d="M40.3,12.9c0-1.4,0-2.9,0-4.3c0-0.2,0-0.4,0-0.6c0-0.7-0.7-1.5-1.4-1.4c-0.8,0-1.4,0.6-1.4,1.4
					c0,1.4,0,2.9,0,4.3c0,0.2,0,0.4,0,0.6c0,0.7,0.7,1.5,1.4,1.4C39.6,14.3,40.3,13.7,40.3,12.9L40.3,12.9z"/>
			</g>
		</g>
		<g>
			<g>
				<path class="st1" d="M30.4,14.9c-0.9-1.1-1.7-2.2-2.6-3.3c-0.1-0.2-0.2-0.3-0.4-0.5c-0.2-0.3-0.7-0.4-1-0.4
					c-0.4,0-0.8,0.2-1,0.4c-0.2,0.3-0.4,0.6-0.4,1c0,0.4,0.2,0.7,0.4,1c0.9,1.1,1.7,2.2,2.6,3.3c0.1,0.2,0.2,0.3,0.4,0.5
					c0.2,0.3,0.7,0.4,1,0.4c0.4,0,0.8-0.2,1-0.4c0.2-0.3,0.4-0.6,0.4-1C30.8,15.5,30.6,15.2,30.4,14.9L30.4,14.9z"/>
			</g>
		</g>
		<g>
			<g>
				<path class="st1" d="M49.3,16.9c0.9-1.1,1.7-2.2,2.6-3.3c0.1-0.2,0.2-0.3,0.4-0.5c0.2-0.3,0.4-0.6,0.4-1c0-0.4-0.2-0.8-0.4-1
					c-0.3-0.2-0.6-0.4-1-0.4c-0.4,0-0.8,0.1-1,0.4c-0.9,1.1-1.7,2.2-2.6,3.3c-0.1,0.2-0.2,0.3-0.4,0.5c-0.2,0.3-0.4,0.6-0.4,1
					c0,0.4,0.2,0.8,0.4,1c0.3,0.2,0.6,0.4,1,0.4C48.7,17.3,49.1,17.2,49.3,16.9L49.3,16.9z"/>
			</g>
		</g>
		<g>
			<g>
				<path class="st1" d="M30.6,41.3c0-1.7,0-3.4,0-5.1c0-2.5,0-5.1,0-7.6c0-0.8,0-1.7,0.1-2.5c0,0.1,0,0.3-0.1,0.4
					c0.1-0.9,0.3-1.7,0.7-2.5c0,0.1-0.1,0.2-0.1,0.3c0.2-0.6,0.5-1.1,0.9-1.6c0.1-0.1,0.2-0.3,0.3-0.4c0.1-0.1,0.2-0.3-0.1,0.1
					c0.1-0.1,0.1-0.1,0.2-0.2c0.2-0.2,0.4-0.5,0.6-0.7c0.2-0.2,0.4-0.4,0.7-0.6c0,0,0.1-0.1,0.2-0.2c-0.1,0-0.3,0.2-0.1,0.1
					c0.1-0.1,0.3-0.2,0.4-0.3c0.5-0.3,1.1-0.6,1.6-0.9c-0.1,0-0.2,0.1-0.3,0.1c0.8-0.3,1.6-0.6,2.5-0.7c-0.1,0-0.3,0-0.4,0.1
					c0.8-0.1,1.7-0.1,2.5,0c-0.1,0-0.3,0-0.4-0.1c0.9,0.1,1.7,0.3,2.5,0.7c-0.1,0-0.2-0.1-0.3-0.1c0.6,0.2,1.1,0.5,1.6,0.9
					c0.1,0.1,0.3,0.2,0.4,0.3c0.1,0.1,0.3,0.2-0.1-0.1c0.1,0.1,0.1,0.1,0.2,0.2c0.2,0.2,0.5,0.4,0.7,0.6c0.2,0.2,0.4,0.4,0.6,0.7
					c0,0,0.1,0.1,0.2,0.2c0-0.1-0.2-0.3-0.1-0.1c0.1,0.1,0.2,0.3,0.3,0.4c0.3,0.5,0.6,1.1,0.9,1.6c0-0.1-0.1-0.2-0.1-0.3
					c0.3,0.8,0.6,1.6,0.7,2.5c0-0.1,0-0.3-0.1-0.4c0.1,0.7,0.1,1.5,0.1,2.2c0,1.1,0,2.2,0,3.2c0,2.6,0,5.2,0,7.9c0,0.6,0,1.2,0,1.9
					c0.5-0.5,1-1,1.4-1.4c-0.6,0-1.3,0-1.9,0c-1.5,0-3.1,0-4.6,0c-1.9,0-3.7,0-5.6,0c-1.6,0-3.2,0-4.8,0c-0.8,0-1.6,0-2.3,0
					c0,0,0,0,0,0c-0.7,0-1.5,0.7-1.4,1.4c0,0.8,0.6,1.4,1.4,1.4c0.6,0,1.3,0,1.9,0c1.5,0,3.1,0,4.6,0c1.9,0,3.7,0,5.6,0
					c1.6,0,3.2,0,4.8,0c0.8,0,1.6,0,2.3,0c0,0,0,0,0,0c0.8,0,1.4-0.7,1.4-1.4c0-1,0-2.1,0-3.1c0-2,0-4.1,0-6.1c0-1.5,0-3,0-4.4
					c0-2.3-0.6-4.7-2-6.6c-0.9-1.3-2.1-2.4-3.5-3.3c-1.4-0.8-3-1.3-4.6-1.5c-3.1-0.3-6.3,0.8-8.6,3c-2.2,2.1-3.5,5-3.5,8.1
					c0,1.1,0,2.2,0,3.3c0,2,0,4.1,0,6.1c0,1.4,0,2.8,0,4.2c0,0.1,0,0.1,0,0.2c0,0.7,0.7,1.5,1.4,1.4C29.9,42.7,30.6,42.1,30.6,41.3z
					"/>
			</g>
		</g>
		<g>
			<g>
				<path class="st1" d="M36.6,49c0-1.8,0-3.6,0-5.3c0-2.8,0-5.7,0-8.5c0-0.6,0-1.3,0-1.9c0-0.7-0.7-1.5-1.4-1.4
					c-0.8,0-1.4,0.6-1.4,1.4c0,1.8,0,3.6,0,5.3c0,2.8,0,5.7,0,8.5c0,0.6,0,1.3,0,1.9c0,0.7,0.7,1.5,1.4,1.4
					C35.9,50.4,36.6,49.8,36.6,49L36.6,49z"/>
			</g>
		</g>
		<g>
			<g>
				<path class="st1" d="M38.3,31.9c1.2,0,2.4,0,3.6,0c0.2,0,0.4,0,0.5,0c-0.5-0.5-1-1-1.4-1.4c0,0.6,0,1.2,0,1.9c0,1.5,0,3,0,4.4
					c0,1.8,0,3.6,0,5.4c0,1.5,0,3.1,0,4.6c0,0.8,0,1.5,0,2.3c0,0,0,0,0,0c0,0.7,0.7,1.5,1.4,1.4c0.8,0,1.4-0.6,1.4-1.4
					c0-0.6,0-1.2,0-1.9c0-1.5,0-3,0-4.4c0-1.8,0-3.6,0-5.4c0-1.5,0-3.1,0-4.6c0-0.8,0-1.5,0-2.3c0,0,0,0,0,0c0-0.8-0.7-1.4-1.4-1.4
					c-1.2,0-2.4,0-3.6,0c-0.2,0-0.4,0-0.5,0c-0.7,0-1.5,0.7-1.4,1.4S37.5,31.9,38.3,31.9L38.3,31.9z"/>
			</g>
		</g>
		<g>
			<g>
				<path class="st1" d="M50.9,39.9c-0.8,0-1.6,0-2.4,0c-1.9,0-3.8,0-5.8,0c-2.3,0-4.6,0-7,0c-2,0-4,0-6,0c-1,0-1.9,0-2.9,0
					c0,0,0,0,0,0c-0.7,0-1.5,0.7-1.4,1.4c0,0.8,0.6,1.4,1.4,1.4c0.8,0,1.6,0,2.4,0c1.9,0,3.8,0,5.8,0c2.3,0,4.6,0,7,0c2,0,4,0,6,0
					c1,0,1.9,0,2.9,0c0,0,0,0,0,0c0.7,0,1.5-0.7,1.4-1.4C52.3,40.5,51.7,39.9,50.9,39.9L50.9,39.9z"/>
			</g>
		</g>
	</g>
</g>
</svg>
